<?xml version="1.0" encoding="UTF-8" standalone="no"?>
<!-- Created with Inkscape (http://www.inkscape.org/) -->

<svg
   version="1.1"
   id="svg1"
   width="780.66559"
   height="711.92328"
   viewBox="0 0 780.66559 711.92328"
   sodipodi:docname="claw2.svg"
   inkscape:export-filename="claw_orange.png"
   inkscape:export-xdpi="96"
   inkscape:export-ydpi="96"
   inkscape:version="1.3.2 (1:1.3.2+202311252150+091e20ef0f)"
   xmlns:inkscape="http://www.inkscape.org/namespaces/inkscape"
   xmlns:sodipodi="http://sodipodi.sourceforge.net/DTD/sodipodi-0.dtd"
   xmlns="http://www.w3.org/2000/svg"
   xmlns:svg="http://www.w3.org/2000/svg">
  <defs
     id="defs1" />
  <sodipodi:namedview
     id="namedview1"
     pagecolor="#ffffff"
     bordercolor="#cccccc"
     borderopacity="1"
     inkscape:showpageshadow="0"
     inkscape:pageopacity="1"
     inkscape:pagecheckerboard="0"
     inkscape:deskcolor="#d1d1d1"
     inkscape:zoom="0.57421875"
     inkscape:cx="390.09524"
     inkscape:cy="357.0068"
     inkscape:window-width="2560"
     inkscape:window-height="1376"
     inkscape:window-x="0"
     inkscape:window-y="27"
     inkscape:window-maximized="1"
     inkscape:current-layer="g1" />
  <g
     inkscape:groupmode="layer"
     inkscape:label="Image"
     id="g1"
     transform="translate(-122.15196,-154.76643)">
    <path
       style="fill:#d45500;stroke:none"
       d="m 309.21854,322.68773 c -2.57538,9.9498 -5.20932,19.9712 -7.42438,30 -0.71939,3.257 -2.99209,8.5012 -1.37732,11.7222 3.54026,7.0617 26.89499,6.094 29.01392,-1.777 2.1998,-8.1715 -4.88492,-23.5454 -6.40744,-31.9452 -1.47498,-8.1375 6.017,-12.9976 4.96683,-21 -0.77719,-5.9222 -6.24002,-8.7465 -8.16822,-14 -1.70199,-4.6372 -0.60339,-11.1201 -0.60339,-16 0,-8.7745 -2.70233,-25.3289 5.1088,-31.4862 4.51266,-3.5571 11.48202,-3.1089 16.8912,-3.7993 11.68402,-1.4913 23.35751,-3.3332 35,-5.1389 22.63373,-3.5102 45.30502,-7.236 68,-10.2932 13.60724,-1.833 28.78516,-2.2186 42,-5.8511 6.02432,-1.6559 11.00684,-6.3236 17,-8.3264 7.37161,-2.4634 33.28687,-1.2435 30.06866,11.8943 -5.17218,21.1146 -35.65661,4.1205 -47.06866,5.3048 -32.07443,3.3287 -64.08438,9.723 -96,14.4244 -16.4361,2.4211 -35.16116,2.5881 -51,7.2716 12.42017,8.2475 29.97559,11.4753 44,16.3441 27.67926,9.6092 55.21259,19.6929 83,28.9892 13.41681,4.4886 32.79129,16.4736 47,15.4421 10.29974,-0.7477 21.26593,-6.8634 31,-10.1087 23.08978,-7.698 46.1095,-15.8609 69,-24.1019 37.4906,-13.4972 75.19733,-26.6306 113,-39.2315 8.65204,-2.884 17.56799,-5.4651 25.99921,-8.9383 2.90521,-1.1968 8.8363,-3.9639 4.66363,-7.5555 -6.67602,-5.7465 -21.30127,-6.9391 -29.66284,-9.2639 -22.71057,-6.3143 -45.21417,-13.441 -68,-19.4599 -33.4726,-8.8418 -66.76379,-18.82897 -100,-28.54009 -14.41187,-4.21093 -31.91473,-12.47839 -47,-12.49688 -13.97659,-0.0172 -29.67831,7.60449 -43,11.49688 -29.2717,8.5528 -58.56564,17.30129 -88,25.27309 -29.45068,7.9762 -58.6416,16.9703 -88,25.2917 -4.84506,1.3733 -25.96844,4.2165 -26.82407,9.9792 -0.61166,4.1195 7.10962,5.6387 9.82407,6.5471 8.35852,2.797 26.50305,5.1958 32.39661,11.8433 2.65832,2.9984 1.60339,8.7971 1.60339,12.49 0,10.9722 3.41614,28.7 -0.60339,38.9105 -3.53339,8.9756 -15.34644,18.9451 -0.39661,26.0895 m 65,-40 v 43 c 0,8.7263 -0.96432,17.3685 4.10803,24.9961 11.82556,17.783 39.42194,28.7827 58.89197,35.3365 52.30841,17.6074 113.14056,18.0845 164,-5.1019 15.30396,-6.9769 34.09729,-15.1235 44.21143,-29.2307 5.75549,-8.0278 4.78857,-16.6168 4.78857,-26 v -43 c -13.28625,0.6085 -28.54352,8.5635 -41,13.189 -21.10229,7.8359 -42.69244,14.5554 -64,21.814 -9.77985,3.3316 -22.53662,11.1431 -33,10.7192 -9.79797,-0.3969 -20.81577,-6.5279 -30,-9.7222 -23.66162,-8.2296 -47.39432,-16.2907 -71,-24.6922 -11.62003,-4.1356 -24.55292,-11.0427 -37,-11.3078 m 352,234 c 11.97699,-18.9392 20.51013,-33.7725 43,-41.946 8.43396,-3.0651 17.15387,-4.4539 26,-5.6296 3.479,-0.4624 8.69202,0.4761 11.48688,-2.0278 3.80853,-3.412 4.40417,-11.7692 6.3858,-16.3966 4.49463,-10.4956 10.14331,-20.3037 17.56635,-28.9962 7.55041,-8.8416 17.70214,-15.784 27.56097,-21.8009 2.42273,-1.4786 8.53516,-4.1382 6.8241,-7.9398 -1.82239,-4.0489 -11.02222,-4.731 -14.8241,-5.4583 -15.65973,-2.9956 -32.88843,-1.4853 -48,3.5285 -38.07758,12.6337 -68.5235,41.0217 -78.37347,80.6667 -3.39484,13.6637 -5.52613,33.4305 2.37347,46 m -569,-125 c 3.481,7.0814 12.79121,9.9792 19,14.4283 10.18887,7.301 19.05072,15.9289 25.77161,26.5717 4.60426,7.291 8.34063,14.8359 11.14969,23 1.28489,3.7344 1.7005,9.5297 5.35647,11.821 6.81743,4.2726 20.69156,2.5996 28.72223,4.6574 23.75406,6.0866 42.98773,21.9915 51,45.5216 12.61819,-16.9359 3.62863,-50.1956 -4.75308,-67 -23.27497,-46.6639 -84.556,-81.9124 -136.24692,-59 m -27.73688,28.1759 c -5.0394,2.2489 -5.74334,14.1579 -6.39352,18.8241 -2.79784,20.0793 0.81312,39.5543 8.99228,58 20.80107,46.9108 87.0823,84.0594 136.13812,58.2191 6.93564,-3.6533 15.45642,-8.7946 18.86035,-16.2199 6.44214,-14.0529 -6.57736,-34.1752 -16.86035,-42.5316 -17.12602,-13.9173 -38.50146,-13.1633 -59,-16.892 -14.0959,-2.564 -27.13596,-8.7043 -39,-16.5795 -12.94408,-8.5919 -24.18976,-19.9097 -32.56482,-32.9961 -1.79016,-2.7973 -5.65129,-11.8416 -10.17206,-9.8241 m 763.73383,0.1697 c -5.3039,1.4796 -9.41394,11.4688 -12.42523,15.6544 -7.38709,10.2676 -17.23969,19.3216 -27.57172,26.5617 -11.83063,8.2902 -25.77576,14.242 -40,16.8241 -23.37799,4.2438 -48.97198,3.6611 -65.67438,23.615 -3.44269,4.1129 -6.4021,8.9056 -8.11963,13.9992 -14.75921,43.7714 48.32019,50.7041 77.79401,42.8449 37.32532,-9.9528 71.5766,-42.3873 81.8418,-79.8449 4.23126,-15.4399 4.83899,-30.3181 2.07409,-46 -0.6112,-3.4668 -2.35852,-15.2055 -7.91894,-13.6544 m -424.99695,151.6544 c -28.74188,0 -55.04065,3.6346 -77,24.0895 -23.77036,22.1418 -28,50.13 -28,80.9105 0,32.7202 3.66876,60.4369 29,83.9097 23.39444,21.6781 52.24939,21.0903 82,21.0903 35.33185,0 70.66858,0.1695 106,-7e-4 36.505,-0.1761 68.18707,-27.9526 78.2793,-61.9993 4.17309,-14.0783 3.7207,-29.4706 3.7207,-44 0,-16.017 -0.46423,-33.0242 -6.87268,-48 -18.36993,-42.9287 -55.78357,-56 -99.12732,-56 12.17273,-20.856 18.2699,-45.7089 31.35187,-65.9452 4.91742,-7.6066 15.74627,-5.6926 18.99536,-16.0548 4.96814,-15.8446 -13.81793,-30.6671 -27.30328,-19.6057 -12.05549,9.8885 0.47296,19.133 -3.41126,29.6057 -6.51233,17.5586 -17.14423,33.8855 -24.77161,51 -2.5213,5.6573 -5.49255,16.6792 -11.07403,19.9722 -3.82691,2.2578 -10.50275,1.0278 -14.78705,1.0278 -12.17505,0 -25.95203,1.8185 -37.95987,-0.1481 -6.50507,-1.0654 -9.20514,-11.6758 -11.79321,-16.8519 -6.60807,-13.2161 -13.08261,-26.5694 -19.24692,-40 -2.38437,-5.195 -6.81812,-11.3161 -7.62036,-17 -1.3168,-9.3298 7.33221,-15.2688 -0.0286,-24.9059 -11.26483,-14.7486 -35.60635,-1.6389 -30.5617,15.9059 3.15368,10.9682 13.67367,8.5293 18.8472,16.1443 4.18011,6.1527 6.3829,14.1607 9.62191,20.8557 7.35474,15.2022 15.32254,30.3751 21.74152,46 m -161.99997,-42 c -10.99509,23.5495 -28.56754,35.015 -52,44 2.93268,6.2845 9.08496,10.7057 15,14.1243 13.66418,7.8969 32.36758,10.2298 44.81558,-1.4531 14.70471,-13.8007 11.21134,-47.7736 -7.81558,-56.6712 m 464,44 c -24.6897,-8.3526 -38.95203,-21.8754 -52,-44 -18.47974,6.841 -20.74847,40.3531 -10.07251,53.9097 11.6781,14.8291 32.46265,12.5756 47.07251,4.2176 6.01172,-3.4392 12.02142,-7.741 15,-14.1273 m -435,-2 c -6.48679,16.9415 -14.63153,27.2616 -32,34 10.59988,15.0377 32.25177,27.0271 49,34 l 10.25848,-26 9.74152,-18 -37,-24 m 353,0 -36,25 c 7.90955,14.2068 16.26453,26.8536 20,43 17.48975,-7.2817 37.99341,-19.1093 50,-34 -11.35071,-3.1045 -20.42889,-9.9161 -26.53552,-20 -2.75452,-4.5486 -3.90424,-10.0437 -7.46448,-14 m -238,67.3326 c 9.05814,-1.4801 16.61639,4.8936 20.20062,12.6674 6.71787,14.5704 6.50272,51.6546 -14.20062,54.787 -32.67511,4.9438 -34.55118,-62.7895 -6,-67.4544 m 119,0 c 30.71082,-5.3456 33.90002,62.5697 7,67.3402 -32.55048,5.7726 -34.79883,-62.5015 -7,-67.3402 m -211,96.6694 -8,-30 c -8.79828,2.8628 -33.49719,7.701 -36.26312,18.1705 -1.25827,4.7628 4.98007,9.3405 8.26388,11.6088 11.17029,7.7158 24.05231,4.7279 35.99924,0.2207 m 317,-30 c -2.54102,6.7731 -3.23474,14.1079 -5.51544,21 -0.79724,2.4092 -2.84546,5.9888 -1.36341,8.4869 1.64545,2.7735 7.04737,3.2129 9.87885,3.8618 9.08319,2.0816 33.92731,0.3262 33.16821,-14.3093 -0.20416,-3.9362 -5.21057,-6.6059 -8.169,-8.2971 -8.52954,-4.876 -18.67817,-7.7094 -27.99921,-10.7423 m -370,32 c 0,16.3518 2.71466,31.5375 8.00308,47 2.31314,6.7632 5.27161,14.7132 11.99692,18 5.36008,-10.6799 5.06631,-23.4047 6.16977,-35 0.37289,-3.9185 2.24679,-9.9353 -0.19754,-13.5016 -2.15167,-3.1392 -7.73761,-4.5267 -10.97223,-6.2908 -5.36728,-2.9273 -9.49759,-7.6568 -15,-10.2076 m 412,0 c -5.85272,7.5179 -14.74341,12.8013 -24,15 0,17.0652 0.68073,33.6468 6,50 6.60754,-2.0321 9.31366,-10.0114 11.57483,-16 6.19446,-16.4058 8.42517,-31.5572 8.42517,-49 h -2 m -322,43 -21,-21 c -8.3793,2.179 -28.69107,18.124 -28.17282,27.9066 0.44055,8.316 18.45795,8.981 24.17282,8.1188 9.63806,-1.4539 17.06158,-10.0652 25,-15.0254 m 234,-1 c 5.64252,4.2519 11.06696,8.7774 17,12.6404 6.31805,4.1137 31.42175,7.5582 32.45758,-4.6806 0.65826,-7.7776 -13.23114,-18.2154 -18.45758,-22.6589 -2.08258,-1.7705 -5.01544,-4.5825 -8,-4.2677 -6.55725,0.6915 -18.91345,13.9145 -23,18.9668 m -286,23 c 0.38571,18.1063 14.45792,38.7852 25.8696,51.9993 2.43216,2.8162 10.87289,13.8355 15.51236,10.8641 3.01047,-1.9281 0.16952,-11.0186 -0.3017,-13.8634 -1.73688,-10.4859 -4.38928,-20.9193 -7.74692,-31 -1.10455,-3.3163 -1.95828,-8.8084 -4.98227,-10.9722 -2.8518,-2.0407 -8.00961,-0.9307 -11.35107,-1.4676 -5.90616,-0.9491 -11.45343,-3.4206 -17,-5.5602 m 296,64 c 7.58044,-0.8443 12.96344,-7.4661 17.69983,-13 11.72211,-13.6958 21.63708,-32.3002 25.30017,-50 -6.52441,0.6539 -12.44653,3.8565 -19,4.7106 -3.20862,0.4182 -7.74243,-0.5271 -10.29785,1.8928 -3.11829,2.9529 -4.08026,9.4538 -5.48456,13.3966 -4.81506,13.5194 -8.21594,28.6346 -8.21759,43 z"
       id="path1" />
  </g>
</svg>
