<?xml version="1.0" encoding="UTF-8" standalone="no"?>
<svg
   viewBox="0 0 930.49277 1390.6305"
   width="930.4928"
   height="1390.6305"
   version="1.1"
   id="svg62"
   sodipodi:docname="acaclaw-poster-zh.svg"
   xml:space="preserve"
   inkscape:version="1.3.2 (1:1.3.2+202311252150+091e20ef0f)"
   xmlns:inkscape="http://www.inkscape.org/namespaces/inkscape"
   xmlns:sodipodi="http://sodipodi.sourceforge.net/DTD/sodipodi-0.dtd"
   xmlns="http://www.w3.org/2000/svg"
   xmlns:svg="http://www.w3.org/2000/svg"><sodipodi:namedview
     id="namedview62"
     pagecolor="#ffffff"
     bordercolor="#cccccc"
     borderopacity="1"
     inkscape:showpageshadow="0"
     inkscape:pageopacity="1"
     inkscape:pagecheckerboard="0"
     inkscape:deskcolor="#d1d1d1"
     inkscape:zoom="0.75870968"
     inkscape:cx="160.79932"
     inkscape:cy="572.02381"
     inkscape:window-width="2560"
     inkscape:window-height="1376"
     inkscape:window-x="0"
     inkscape:window-y="27"
     inkscape:window-maximized="1"
     inkscape:current-layer="svg62" /><defs
     id="defs21"><!-- Background Gradients --><linearGradient
       id="bg-grad"
       x1="0"
       y1="0"
       x2="1181.1012"
       y2="1181.1012"
       gradientTransform="matrix(0.76143504,0,0,1.3141321,0.75238049,0)"
       gradientUnits="userSpaceOnUse"><stop
         offset="0%"
         stop-color="#0f172a"
         id="stop1" /><stop
         offset="50%"
         stop-color="#1e1b4b"
         id="stop2" /><stop
         offset="100%"
         stop-color="#0f172a"
         id="stop3" /></linearGradient><!-- Specific Gradients for Co-Scientists --><linearGradient
       id="bio-grad"
       x1="-129.69914"
       y1="-129.69913"
       x2="129.69914"
       y2="129.69914"
       gradientTransform="scale(1.0751673,0.93008779)"
       gradientUnits="userSpaceOnUse"><stop
         offset="0%"
         stop-color="#34d399"
         id="stop4" /><stop
         offset="100%"
         stop-color="#059669"
         id="stop5" /></linearGradient><linearGradient
       id="chem-grad"
       x1="-129.69914"
       y1="-129.69913"
       x2="129.69914"
       y2="129.69914"
       gradientTransform="scale(1.0751673,0.93008779)"
       gradientUnits="userSpaceOnUse"><stop
         offset="0%"
         stop-color="#f472b6"
         id="stop6" /><stop
         offset="100%"
         stop-color="#db2777"
         id="stop7" /></linearGradient><linearGradient
       id="data-grad"
       x1="-129.69914"
       y1="-129.69913"
       x2="129.69914"
       y2="129.69914"
       gradientTransform="scale(1.0751673,0.93008779)"
       gradientUnits="userSpaceOnUse"><stop
         offset="0%"
         stop-color="#60a5fa"
         id="stop8" /><stop
         offset="100%"
         stop-color="#2563eb"
         id="stop9" /></linearGradient><linearGradient
       id="med-grad"
       x1="-129.69914"
       y1="-129.69913"
       x2="129.69914"
       y2="129.69914"
       gradientTransform="scale(1.0751673,0.93008779)"
       gradientUnits="userSpaceOnUse"><stop
         offset="0%"
         stop-color="#f87171"
         id="stop10" /><stop
         offset="100%"
         stop-color="#dc2626"
         id="stop11" /></linearGradient><linearGradient
       id="primary-text"
       x1="-152.10051"
       y1="-175.74852"
       x2="151.62901"
       y2="-175.74852"
       gradientTransform="scale(2.4854648,0.40233924)"
       gradientUnits="userSpaceOnUse"><stop
         offset="0%"
         stop-color="#818cf8"
         id="stop12" /><stop
         offset="100%"
         stop-color="#c084fc"
         id="stop13" /></linearGradient><!-- Card Backgrounds --><linearGradient
       id="card-blue"
       x1="-0.7725116"
       y1="-1.2944789"
       x2="286.60181"
       y2="286.07983"
       gradientTransform="scale(1.2944789,0.77251161)"
       gradientUnits="userSpaceOnUse"><stop
         offset="0%"
         stop-color="rgba(59, 130, 246, 0.15)"
         id="stop14" /><stop
         offset="100%"
         stop-color="rgba(30, 58, 138, 0.05)"
         id="stop15" /></linearGradient><linearGradient
       id="card-purple"
       x1="-0.62207168"
       y1="-1.6075318"
       x2="324.09937"
       y2="323.11389"
       gradientTransform="scale(1.6075318,0.62207168)"
       gradientUnits="userSpaceOnUse"><stop
         offset="0%"
         stop-color="rgba(167, 139, 250, 0.15)"
         id="stop16" /><stop
         offset="100%"
         stop-color="rgba(76, 29, 149, 0.05)"
         id="stop17" /></linearGradient><linearGradient
       id="card-gray"
       x1="-0.91362506"
       y1="-1.094541"
       x2="220.18364"
       y2="220.00272"
       gradientTransform="scale(1.0945409,0.91362506)"
       gradientUnits="userSpaceOnUse"><stop
         offset="0%"
         stop-color="rgba(148, 163, 184, 0.15)"
         id="stop18" /><stop
         offset="100%"
         stop-color="rgba(71, 85, 105, 0.05)"
         id="stop19" /></linearGradient><linearGradient
       id="card-yellow"
       x1="-0.7725116"
       y1="-1.2944789"
       x2="286.60181"
       y2="286.07983"
       gradientTransform="scale(1.2944789,0.77251161)"
       gradientUnits="userSpaceOnUse"><stop
         offset="0%"
         stop-color="rgba(250, 204, 21, 0.15)"
         id="stop20" /><stop
         offset="100%"
         stop-color="rgba(161, 98, 7, 0.05)"
         id="stop21" /></linearGradient><!-- Glowing Effect --><filter
       id="glow"
       x="-0.66206897"
       y="-0.50526316"
       width="2.3241379"
       height="2.0105263"><feGaussianBlur
         stdDeviation="8"
         result="blur"
         id="feGaussianBlur21" /><feComposite
         in="SourceGraphic"
         in2="blur"
         operator="over"
         id="feComposite21" /></filter><clipPath
       clipPathUnits="userSpaceOnUse"
       id="clipPath62"><rect
         style="opacity:0.97;fill:#d45500;stroke:#00ff00;stroke-width:0;stroke-linecap:round;stroke-linejoin:round"
         id="rect63"
         width="926.13354"
         height="1413.5382"
         x="-455.08905"
         y="-156.05574"
         rx="47.941113"
         ry="35.299343" /></clipPath><clipPath
       clipPathUnits="userSpaceOnUse"
       id="clipPath64"><rect
         style="opacity:0.97;fill:#d45500;stroke:#00ff00;stroke-width:0;stroke-linecap:round;stroke-linejoin:round"
         id="rect65"
         width="907.12097"
         height="1391.0038"
         x="5.3200188"
         y="-0.37326944"
         rx="47.941113"
         ry="35.299343" /></clipPath></defs><!-- Background --><rect
     width="99.925758%"
     height="100.13697%"
     fill="url(#bg-grad)"
     id="rect21"
     style="display:inline;fill:url(#bg-grad);stroke-width:1.00031"
     x="0.75236601"
     y="0" /><!-- Decorative Background elements (Scientific vibe) --><g
     stroke="rgba(255,255,255,0.03)"
     stroke-width="1.5"
     fill="none"
     id="g24"
     transform="translate(9.4482756)"
     clip-path="url(#clipPath64)"><!-- Grid --><path
       d="M 0,200 H 900 M 0,400 H 900 M 0,600 H 900 M 0,800 H 900 M 0,1000 H 900 M 0,1200 H 900 M 0,1400 h 900"
       id="path21" /><path
       d="M 150,0 V 1550 M 300,0 V 1550 M 450,0 V 1550 M 600,0 V 1550 M 750,0 v 1550"
       id="path22" /><!-- Abstract connections --><path
       d="M 0,350 C 300,250 600,450 900,300"
       stroke="rgba(167, 139, 250, 0.2)"
       stroke-width="3"
       id="path23" /><path
       d="M 0,850 C 200,950 700,750 900,900"
       stroke="rgba(59, 130, 246, 0.2)"
       stroke-width="3"
       id="path24" /></g><!-- Header Section --><g
     transform="translate(459.44828,150)"
     id="g26"
     style="display:inline"
     clip-path="url(#clipPath62)"><text
       x="0"
       y="20"
       font-family="'Segoe UI', Roboto, sans-serif"
       font-size="80px"
       font-weight="900"
       fill="url(#primary-text)"
       text-anchor="middle"
       letter-spacing="2"
       filter="url(#glow)"
       id="text24"
       style="fill:url(#primary-text)">AcaClaw</text><!-- The Core Concept --><g
       transform="translate(0,80)"
       id="g25"><rect
         x="-320"
         y="-35"
         width="640"
         height="60"
         rx="30"
         fill="#312e81"
         stroke="#6366f1"
         stroke-width="2"
         filter="url(#glow)"
         id="rect24" /><text
         x="0"
         y="5"
         font-family="'Segoe UI', Roboto, sans-serif"
         font-size="28px"
         font-weight="800"
         fill="#ffffff"
         text-anchor="middle"
         letter-spacing="1"
         id="text25">🚀 Your Own AI Co-Scientist</text></g><text
       x="0"
       y="160"
       font-family="'Segoe UI', Roboto, sans-serif"
       font-size="22px"
       fill="#cbd5e1"
       text-anchor="middle"
       font-weight="600"
       id="text26">打破学科壁垒，为你量身定制的数字学术搭档！</text></g><!-- ================= CO-SCIENTISTS CARDS (HERO SECTION) ================= --><!-- This highlights the "Digital Biologist, Chemist..." concept prominently as requested --><g
     transform="translate(459.44828,520)"
     id="g40"><text
       x="0"
       y="-120"
       font-family="'Segoe UI', Roboto, sans-serif"
       font-size="32px"
       font-weight="800"
       fill="#e2e8f0"
       text-anchor="middle"
       id="text27">🎓 召唤你的专属领域大师</text><text
       x="0"
       y="-85"
       font-family="'Segoe UI', Roboto, sans-serif"
       font-size="18px"
       fill="#94a3b8"
       text-anchor="middle"
       id="text28">&quot;We provide a field-specific digital partner for everyone in academia.&quot;</text><!-- Biologist --><g
       transform="translate(-320)"
       id="g30"><circle
         cx="0"
         cy="0"
         r="60"
         fill="url(#bio-grad)"
         filter="url(#glow)"
         id="circle28"
         style="fill:url(#bio-grad)" /><!-- DNA icon --><path
         d="M -15,-20 Q 0,0 15,20 m -30,0 Q 0,0 15,-20"
         fill="none"
         stroke="#ffffff"
         stroke-width="4"
         stroke-linecap="round"
         id="path28" /><line
         x1="-10"
         y1="-10"
         x2="10"
         y2="-10"
         stroke="#ffffff"
         stroke-width="2"
         id="line28" /><line
         x1="-5"
         y1="0"
         x2="5"
         y2="0"
         stroke="#ffffff"
         stroke-width="2"
         id="line29" /><line
         x1="-10"
         y1="10"
         x2="10"
         y2="10"
         stroke="#ffffff"
         stroke-width="2"
         id="line30" /><!-- Background Circle decoration --><circle
         cx="0"
         cy="0"
         r="75"
         fill="none"
         stroke="#34d399"
         stroke-width="2"
         stroke-dasharray="6, 4"
         opacity="0.5"
         id="circle30" /><text
         x="0"
         y="100"
         font-family="'Segoe UI', Roboto, sans-serif"
         font-size="22px"
         font-weight="700"
         fill="#34d399"
         text-anchor="middle"
         id="text30">AI 生物学家</text></g><!-- Chemist --><g
       transform="translate(-110)"
       id="g34"><circle
         cx="0"
         cy="0"
         r="60"
         fill="url(#chem-grad)"
         filter="url(#glow)"
         id="circle31"
         style="fill:url(#chem-grad)" /><!-- Flask icon --><path
         d="m -10,-20 h 20 v 10 l 15,25 c 3,5 0,10 -5,10 h -40 c -5,0 -8,-5 -5,-10 l 15,-25 z"
         fill="none"
         stroke="#ffffff"
         stroke-width="4"
         stroke-linejoin="round"
         id="path31" /><!-- Bubbles --><circle
         cx="-5"
         cy="5"
         r="3"
         fill="#ffffff"
         id="circle32" /><circle
         cx="8"
         cy="18"
         r="2"
         fill="#ffffff"
         id="circle33" /><circle
         cx="0"
         cy="0"
         r="75"
         fill="none"
         stroke="#f472b6"
         stroke-width="2"
         stroke-dasharray="6, 4"
         opacity="0.5"
         id="circle34" /><text
         x="0"
         y="100"
         font-family="'Segoe UI', Roboto, sans-serif"
         font-size="22px"
         font-weight="700"
         fill="#f472b6"
         text-anchor="middle"
         id="text34">AI 化学家</text></g><!-- Data Scientist --><g
       transform="translate(110)"
       id="g37"><circle
         cx="0"
         cy="0"
         r="60"
         fill="url(#data-grad)"
         filter="url(#glow)"
         id="circle35"
         style="fill:url(#data-grad)" /><!-- Chart icon --><rect
         x="-18"
         y="-10"
         width="8"
         height="30"
         rx="2"
         fill="#ffffff"
         id="rect35" /><rect
         x="-4"
         y="-20"
         width="8"
         height="40"
         rx="2"
         fill="#ffffff"
         id="rect36" /><rect
         x="10"
         y="0"
         width="8"
         height="20"
         rx="2"
         fill="#ffffff"
         id="rect37" /><path
         d="M -25,25 H 25"
         stroke="#ffffff"
         stroke-width="4"
         stroke-linecap="round"
         id="path37" /><circle
         cx="0"
         cy="0"
         r="75"
         fill="none"
         stroke="#60a5fa"
         stroke-width="2"
         stroke-dasharray="6, 4"
         opacity="0.5"
         id="circle37" /><text
         x="0"
         y="100"
         font-family="'Segoe UI', Roboto, sans-serif"
         font-size="22px"
         font-weight="700"
         fill="#60a5fa"
         text-anchor="middle"
         id="text37">数据科学家</text></g><!-- Doctor/Med --><g
       transform="translate(320)"
       id="g39"><circle
         cx="0"
         cy="0"
         r="60"
         fill="url(#med-grad)"
         filter="url(#glow)"
         id="circle38"
         style="fill:url(#med-grad)" /><!-- Cross icon --><path
         d="M -8,-20 H 8 V -8 H 20 V 8 H 8 V 20 H -8 V 8 H -20 V -8 h 12 z"
         fill="#ffffff"
         id="path38" /><circle
         cx="0"
         cy="0"
         r="75"
         fill="none"
         stroke="#f87171"
         stroke-width="2"
         stroke-dasharray="6, 4"
         opacity="0.5"
         id="circle39" /><text
         x="0"
         y="100"
         font-family="'Segoe UI', Roboto, sans-serif"
         font-size="22px"
         font-weight="700"
         fill="#f87171"
         text-anchor="middle"
         id="text39">数字医生</text></g></g><!-- ================= FEATURES SECTION ================= --><g
     transform="translate(9.4482756,750)"
     id="g60"><!-- Row 1: Workspace & GUI --><g
       transform="translate(60)"
       id="g49"><!-- Workspace (Left) --><g
         id="g44"><rect
           width="370"
           height="220"
           rx="24"
           fill="url(#card-blue)"
           stroke="#3b82f6"
           stroke-width="2"
           stroke-opacity="0.4"
           id="rect40"
           x="0"
           y="0"
           style="fill:url(#card-blue)" /><text
           x="35"
           y="55"
           font-family="'Segoe UI', Roboto, sans-serif"
           font-size="26px"
           font-weight="bold"
           fill="#60a5fa"
           id="text40">📂 智能隔离工作区</text><text
           x="35"
           y="95"
           font-family="'Segoe UI', Roboto, sans-serif"
           font-size="18px"
           font-weight="600"
           fill="#e2e8f0"
           id="text41">安全保障！修改仅限项目内</text><text
           x="35"
           y="125"
           font-family="'Segoe UI', Roboto, sans-serif"
           font-size="15px"
           fill="#94a3b8"
           id="text42">AI 限定于当前 Workspace 操作，防止数据污染。</text><!-- Decoration --><g
           transform="translate(290,160)"
           id="g43"><path
             d="M -30,-20 H 10 L 30,0 v 40 h -60 z"
             fill="#1e3a8a"
             stroke="#3b82f6"
             stroke-width="2"
             id="path42" /><path
             d="M 10,-20 V 0 h 20"
             fill="none"
             stroke="#3b82f6"
             stroke-width="2"
             id="path43" /><!-- Lock --><rect
             x="-10"
             y="10"
             width="20"
             height="15"
             rx="3"
             fill="#60a5fa"
             id="rect43" /></g></g><!-- GUI (Right) --><g
         transform="translate(410)"
         id="g48"><rect
           width="370"
           height="220"
           rx="24"
           fill="url(#card-yellow)"
           stroke="#f59e0b"
           stroke-width="2"
           stroke-opacity="0.4"
           id="rect44"
           x="0"
           y="0"
           style="fill:url(#card-yellow)" /><text
           x="35"
           y="55"
           font-family="'Segoe UI', Roboto, sans-serif"
           font-size="26px"
           font-weight="bold"
           fill="#fbbf24"
           id="text44">🖱️ 零代码友好 GUI</text><text
           x="35"
           y="95"
           font-family="'Segoe UI', Roboto, sans-serif"
           font-size="18px"
           font-weight="600"
           fill="#e2e8f0"
           id="text45">小白狂喜！再见，命令行</text><text
           x="35"
           y="125"
           font-family="'Segoe UI', Roboto, sans-serif"
           font-size="15px"
           fill="#94a3b8"
           id="text46">免配置，纯图形界面，点点鼠标即可驾驭 AI。</text><!-- Decoration --><g
           transform="translate(260,140)"
           id="g47"><rect
             x="0"
             y="0"
             width="80"
             height="50"
             rx="8"
             fill="#1e293b"
             stroke="#fbbf24"
             stroke-width="2"
             id="rect46" /><circle
             cx="15"
             cy="15"
             r="4"
             fill="#fbbf24"
             id="circle46" /><circle
             cx="30"
             cy="15"
             r="4"
             fill="#fbbf24"
             opacity="0.5"
             id="circle47" /><path
             d="m 50,25 20,20 -10,3 5,12 -7,3 -7,-14 -10,6 z"
             fill="#ffffff"
             filter="url(#glow)"
             id="path47" /></g></g></g><!-- Row 2: Environment & Backup --><g
       transform="translate(60,250)"
       id="g59"><!-- Computing Env --><g
         id="g55"><rect
           width="520"
           height="200"
           rx="24"
           fill="url(#card-purple)"
           stroke="#a855f7"
           stroke-width="2"
           stroke-opacity="0.4"
           id="rect49"
           x="0"
           y="0"
           style="fill:url(#card-purple)" /><text
           x="35"
           y="55"
           font-family="'Segoe UI', Roboto, sans-serif"
           font-size="26px"
           font-weight="bold"
           fill="#c084fc"
           id="text49">⚡ 统一计算环境</text><text
           x="35"
           y="95"
           font-family="'Segoe UI', Roboto, sans-serif"
           font-size="18px"
           font-weight="600"
           fill="#e2e8f0"
           id="text50">搞定复杂堆栈，绝不冲突！</text><text
           x="35"
           y="125"
           font-family="'Segoe UI', Roboto, sans-serif"
           font-size="15px"
           fill="#94a3b8"
           id="text51">融合 Python/R/CUDA，为所有 Academic Skills 提供算力底座。</text><!-- Env Pills --><g
           transform="translate(35,155)"
           id="g54"><rect
             x="0"
             y="0"
             width="80"
             height="28"
             rx="14"
             fill="#7e22ce"
             stroke="#d8b4fe"
             stroke-width="1"
             id="rect51" /><text
             x="40"
             y="19"
             font-family="'Segoe UI', Roboto, sans-serif"
             font-size="13px"
             font-weight="bold"
             fill="#ffffff"
             text-anchor="middle"
             id="text52">Python</text><rect
             x="90"
             y="0"
             width="70"
             height="28"
             rx="14"
             fill="#7e22ce"
             stroke="#d8b4fe"
             stroke-width="1"
             id="rect52" /><text
             x="125"
             y="19"
             font-family="'Segoe UI', Roboto, sans-serif"
             font-size="13px"
             font-weight="bold"
             fill="#ffffff"
             text-anchor="middle"
             id="text53">CUDA</text><rect
             x="170"
             y="0"
             width="70"
             height="28"
             rx="14"
             fill="#7e22ce"
             stroke="#d8b4fe"
             stroke-width="1"
             id="rect53" /><text
             x="205"
             y="19"
             font-family="'Segoe UI', Roboto, sans-serif"
             font-size="13px"
             font-weight="bold"
             fill="#ffffff"
             text-anchor="middle"
             id="text54">R-Stat</text></g><!-- Big lightning icon --><path
           d="m 454.14305,37.847024 -30,60 h 40 l -20,59.999996 50,-79.999996 h -40 z"
           fill="#d8b4fe"
           opacity="0.8"
           filter="url(#glow)"
           id="path54" /></g><!-- Backup (Smaller feature) --><g
         transform="translate(540)"
         id="g58"><rect
           width="240"
           height="200"
           rx="24"
           fill="url(#card-gray)"
           stroke="#64748b"
           stroke-width="2"
           stroke-opacity="0.4"
           id="rect55"
           x="0"
           y="0"
           style="fill:url(#card-gray)" /><text
           x="120"
           y="60"
           font-family="'Segoe UI', Roboto, sans-serif"
           font-size="22px"
           font-weight="bold"
           fill="#94a3b8"
           text-anchor="middle"
           id="text55">🛡️ 自动备份</text><text
           x="120"
           y="95"
           font-family="'Segoe UI', Roboto, sans-serif"
           font-size="14px"
           fill="#cbd5e1"
           text-anchor="middle"
           id="text56">时光倒流机制</text><text
           x="120"
           y="125"
           font-family="'Segoe UI', Roboto, sans-serif"
           font-size="13px"
           fill="#94a3b8"
           text-anchor="middle"
           id="text57">文件只要修改就会</text><text
           x="120"
           y="145"
           font-family="'Segoe UI', Roboto, sans-serif"
           font-size="13px"
           fill="#94a3b8"
           text-anchor="middle"
           id="text58">被自动存底 (Zero Risk)。</text></g></g></g><!-- ================= FOOTER ================= --><g
     transform="translate(443.94102,1281.7217)"
     id="g62"><path
       d="M -150,0 Q 0,20 150,0"
       fill="none"
       stroke="#4f46e5"
       stroke-width="2"
       id="path60" /><text
       x="0"
       y="45"
       font-family="'Segoe UI', Roboto, sans-serif"
       font-size="18px"
       font-weight="800"
       fill="#6366f1"
       text-anchor="middle"
       letter-spacing="4"
       id="text60">POWERED BY OPENCLAW</text><!-- Stars --><path
       d="m -180,40 -5,-5 5,-5 5,5 z"
       fill="#6366f1"
       id="path61" /><path
       d="m 180,40 -5,-5 5,-5 5,5 z"
       fill="#6366f1"
       id="path62" /></g><path
     style="fill:#d45500;stroke:none;stroke-width:0.167039"
     d="m 68.107156,61.686788 c -0.40089,1.783441 -0.8109,3.579711 -1.15571,5.377308 -0.11198,0.583798 -0.46576,1.523791 -0.2144,2.101132 0.5511,1.265766 4.18659,1.09231 4.51643,-0.318515 0.34243,-1.464689 -0.76041,-4.220369 -0.99741,-5.72598 -0.2296,-1.458591 0.93663,-2.329733 0.77316,-3.764113 -0.12098,-1.06152 -0.97135,-1.567761 -1.2715,-2.509416 -0.26494,-0.83119 -0.0939,-1.993205 -0.0939,-2.867899 0,-1.57277 -0.42065,-4.540043 0.79526,-5.643704 0.70246,-0.637587 1.78734,-0.557247 2.62935,-0.681 1.81879,-0.267303 3.63593,-0.597458 5.44824,-0.921119 3.52327,-0.629178 7.05238,-1.297005 10.58517,-1.844989 2.11816,-0.328555 4.48082,-0.397665 6.5379,-1.048775 0.93777,-0.296804 1.71337,-1.133459 2.64629,-1.492453 1.14749,-0.441551 5.181574,-0.222891 4.680604,2.131983 -0.80512,3.784658 -5.550454,0.738569 -7.326894,0.950849 -4.99284,0.59665 -9.97564,1.742787 -14.94377,2.585479 -2.5585,0.433974 -5.47332,0.463903 -7.93887,1.303393 1.93338,1.478312 4.66613,2.056873 6.84923,2.929578 4.30867,1.722387 8.59462,3.529826 12.92012,5.19613 2.08852,0.804555 5.10443,2.95279 7.31621,2.7679 1.603304,-0.134021 3.310354,-1.230219 4.825594,-1.811921 3.59426,-1.379814 7.17761,-2.842964 10.74084,-4.320117 5.83594,-2.419281 11.70553,-4.773362 17.59005,-7.031995 1.34681,-0.516944 2.73471,-0.979588 4.04714,-1.602134 0.45224,-0.214521 1.3755,-0.710508 0.72596,-1.354277 -1.03922,-1.030022 -3.31584,-1.243788 -4.61743,-1.660496 -3.53523,-1.131797 -7.03823,-2.409218 -10.58517,-3.488066 -5.21048,-1.584837 -10.39273,-3.374971 -15.56642,-5.115631 -2.24342,-0.754783 -4.96799,-2.236671 -7.316224,-2.239987 -2.17566,-0.003 -4.61984,1.363059 -6.69356,2.060746 -4.55655,1.53303 -9.11657,3.101142 -13.69844,4.530041 -4.58442,1.429685 -9.1284,3.04182 -13.69845,4.533373 -0.7542,0.246157 -4.04235,0.755782 -4.17554,1.788716 -0.0952,0.738394 1.10671,1.010698 1.52925,1.173526 1.30112,0.501339 4.12558,0.931311 5.04299,2.122836 0.41381,0.537442 0.24959,1.576825 0.24959,2.238751 0,1.9667 0.53177,5.144294 -0.0939,6.974464 -0.55002,1.608819 -2.38889,3.395789 -0.0617,4.676382 m 10.11818,-7.169752 v 7.707483 c 0,1.564133 -0.15011,3.113195 0.63947,4.480393 1.84081,3.187489 6.13658,5.15912 9.16737,6.333843 8.14254,3.156021 17.611934,3.241537 25.528924,-0.914479 2.38228,-1.250565 5.30772,-2.710795 6.88213,-5.239422 0.89592,-1.438931 0.74541,-2.978456 0.74541,-4.660335 v -7.707483 c -2.06819,0.109071 -4.4432,1.534952 -6.38222,2.364045 -3.28488,1.404536 -6.64569,2.608966 -9.96252,3.910026 -1.52237,0.597169 -3.50814,1.997329 -5.136914,1.92135 -1.52519,-0.07112 -3.24027,-1.170088 -4.66993,-1.74265 -3.68326,-1.475102 -7.37759,-2.920003 -11.05215,-4.425918 -1.80882,-0.741283 -3.82201,-1.979338 -5.75957,-2.026853 m 54.793784,41.943028 c 1.86439,-3.39473 3.19269,-6.053505 6.69356,-7.518553 1.31286,-0.549403 2.67024,-0.798334 4.04726,-1.009074 0.54156,-0.08289 1.35304,0.08534 1.7881,-0.363468 0.59286,-0.611584 0.68557,-2.109556 0.99405,-2.938992 0.69965,-1.881264 1.57894,-3.639305 2.73445,-5.197384 1.17532,-1.584799 2.75559,-2.829182 4.29025,-3.907672 0.37713,-0.265031 1.32862,-0.741747 1.06226,-1.423159 -0.28367,-0.725739 -1.71575,-0.848005 -2.30757,-0.978368 -2.43766,-0.536938 -5.11955,-0.266228 -7.47188,0.632464 -5.92732,2.26451 -10.66666,7.352881 -12.19995,14.458999 -0.52845,2.449125 -0.86021,5.9922 0.36947,8.245207 M 44.446306,74.054606 c 0.54187,1.269295 1.99113,1.788708 2.95762,2.586181 1.58604,1.308653 2.96551,2.855153 4.01171,4.762812 0.71672,1.306862 1.29834,2.659237 1.73561,4.1226 0.20001,0.669367 0.26471,1.70814 0.83381,2.11884 1.06123,0.765837 3.22094,0.465961 4.47102,0.834811 3.69766,1.090984 6.69165,3.941837 7.93888,8.159455 1.9642,-3.035652 0.56484,-8.997246 -0.73989,-12.009328 -3.62308,-8.364207 -13.16234,-14.682279 -21.20876,-10.575371 m -4.31764,5.050347 c -0.78445,0.403108 -0.89403,2.537721 -0.99524,3.374102 -0.43552,3.599085 0.12657,7.089858 1.39977,10.396137 3.23799,8.408458 13.5556,15.067118 21.19183,10.435408 1.07963,-0.65483 2.40601,-1.57638 2.93588,-2.90732 1.00281,-2.518891 -1.02386,-6.125687 -2.62455,-7.623522 -2.66591,-2.494589 -5.9933,-2.35944 -9.18419,-3.027785 -2.19422,-0.45958 -4.22409,-1.560191 -6.0709,-2.971771 -2.01493,-1.540044 -3.76548,-3.568685 -5.06917,-5.914335 -0.27867,-0.5014 -0.87971,-2.122537 -1.58343,-1.760914 m 118.885994,0.03042 c -0.82563,0.265207 -1.46541,2.055706 -1.93416,2.805946 -1.14991,1.840405 -2.6836,3.463273 -4.29193,4.761017 -1.84161,1.485966 -4.01237,2.552792 -6.22657,3.015619 -3.63912,0.760669 -7.62318,0.656225 -10.22314,4.232833 -0.53591,0.737213 -0.99658,1.59628 -1.26394,2.509272 -2.29748,7.84575 7.52172,9.08839 12.10974,7.67968 5.81022,-1.78398 11.14191,-7.597656 12.73984,-14.3117 0.65865,-2.767503 0.75325,-5.434329 0.32286,-8.245203 -0.0951,-0.621403 -0.36714,-2.725493 -1.2327,-2.447464 M 92.857866,106.31847 c -4.47409,0 -8.56786,0.65147 -11.98615,4.31789 -3.70019,3.96877 -4.3586,8.98548 -4.3586,14.50269 0,5.86489 0.5711,10.83293 4.51427,15.04028 3.64167,3.88567 8.13336,3.78031 12.76446,3.78031 5.4999,0 11.000574,0.0304 16.500404,-1.3e-4 5.68252,-0.0316 10.61428,-5.01033 12.18528,-11.11298 0.6496,-2.52344 0.57919,-5.28242 0.57919,-7.88672 0,-2.87094 -0.0723,-5.91938 -1.06984,-8.6037 -2.85954,-7.6947 -8.6835,-10.03764 -15.43057,-10.03764 1.89485,-3.73831 2.84397,-8.193039 4.88036,-11.820273 0.76547,-1.363432 2.45113,-1.020363 2.9569,-2.877717 0.77337,-2.840052 -2.15095,-5.496892 -4.25014,-3.514199 -1.87661,1.772448 0.0736,3.429468 -0.53101,5.306635 -1.01374,3.147269 -2.66875,6.073759 -3.85606,9.141424 -0.39248,1.01404 -0.85499,2.98964 -1.72383,3.5799 -0.59571,0.40469 -1.6349,0.18423 -2.30181,0.18423 -1.895224,0 -4.039804,0.32594 -5.908994,-0.0265 -1.0126,-0.19097 -1.43291,-2.09282 -1.83578,-3.0206 -1.02864,-2.3689 -2.03649,-4.7624 -2.99606,-7.169751 -0.37116,-0.931166 -1.06133,-2.02834 -1.18622,-3.047141 -0.20497,-1.672304 1.14137,-2.736835 -0.004,-4.464224 -1.75353,-2.643598 -5.54263,-0.293762 -4.75735,2.85103 0.49091,1.965982 2.1285,1.528822 2.93383,2.893764 0.65069,1.102837 0.99358,2.538216 1.49779,3.738256 1.14487,2.724896 2.38517,5.444546 3.38437,8.245216 m -25.21763,-7.528273 c -1.71154,4.221103 -4.44694,6.276223 -8.09453,7.886723 0.45651,1.12646 1.4142,1.91893 2.33496,2.53169 2.12702,1.41548 5.03847,1.83363 6.97618,-0.26046 2.289,-2.47368 1.7452,-8.56312 -1.21661,-10.157953 m 72.228184,7.886723 c -3.8433,-1.49715 -6.06344,-3.92103 -8.09454,-7.886723 -2.87664,1.226213 -3.2298,7.233033 -1.56793,9.662973 1.81786,2.65802 5.05327,2.2541 7.3275,0.75598 0.93582,-0.61645 1.87131,-1.38753 2.33497,-2.53223 m -67.713924,-0.35848 c -1.00976,3.03665 -2.2776,4.88646 -4.98125,6.09428 1.65002,2.69541 5.02045,4.84444 7.62755,6.09429 l 1.59687,-4.66034 1.51641,-3.22639 -5.75958,-4.30184 m 54.949464,0 -5.60391,4.48108 c 1.23123,2.54648 2.5318,4.81335 3.11328,7.70749 2.72252,-1.3052 5.91421,-3.42522 7.78321,-6.09429 -1.7669,-0.55646 -3.18005,-1.7774 -4.13064,-3.58487 -0.42877,-0.81531 -0.60774,-1.80028 -1.16194,-2.50941 m -37.048394,12.06892 c 1.41003,-0.26529 2.58658,0.87715 3.14452,2.27056 1.04572,2.61165 1.01223,9.25876 -2.21054,9.82022 -5.08634,0.88615 -5.37837,-11.25462 -0.93398,-12.09078 m 18.524034,0 c 4.78058,-0.95816 5.27702,11.21523 1.08965,12.07032 -5.06694,1.0347 -5.41693,-11.20301 -1.08965,-12.07032 m -32.845134,17.32739 -1.24532,-5.37731 c -1.36957,0.51314 -5.21431,1.38035 -5.64486,3.25695 -0.19587,0.8537 0.77521,1.67422 1.28639,2.0808 1.73881,1.383 3.74408,0.84743 5.60379,0.0396 m 49.345544,-5.3773 c -0.39555,1.21403 -0.50353,2.52874 -0.85856,3.76412 -0.1241,0.43183 -0.44293,1.07345 -0.21223,1.52122 0.25613,0.49712 1.09702,0.57588 1.53778,0.69219 1.41393,0.37312 5.28127,0.0585 5.1631,-2.56485 -0.0318,-0.70553 -0.8111,-1.18406 -1.27162,-1.4872 -1.32775,-0.87399 -2.90752,-1.38186 -4.35847,-1.92548 m -57.595744,5.73579 c 0,2.93095 0.42257,5.65289 1.24579,8.42445 0.36007,1.21226 0.8206,2.63725 1.86749,3.22638 0.83437,-1.91429 0.78864,-4.19514 0.96041,-6.27353 0.058,-0.70236 0.34975,-1.78083 -0.0308,-2.42007 -0.33494,-0.56268 -1.20447,-0.81138 -1.70798,-1.12759 -0.8355,-0.5247 -1.47844,-1.37243 -2.33497,-1.82964 m 64.133644,0 c -0.91106,1.34753 -2.29502,2.29455 -3.73593,2.68865 0,3.05883 0.10595,6.03097 0.93398,8.96218 1.02855,-0.36423 1.4498,-1.79448 1.80178,-2.8679 0.96426,-2.94063 1.3115,-5.65642 1.3115,-8.78293 h -0.31148 m -50.123864,7.70747 -3.26895,-3.76411 c -1.30436,0.39057 -4.46617,3.24861 -4.3855,5.00208 0.0686,1.49059 2.87324,1.60979 3.76284,1.45524 1.50031,-0.2606 2.65588,-1.80412 3.89161,-2.69321 m 36.425414,-0.17924 c 0.87835,0.76212 1.72273,1.5733 2.64629,2.26571 0.9835,0.73736 4.89125,1.35476 5.05249,-0.83897 0.10246,-1.39408 -2.05962,-3.26499 -2.87319,-4.06146 -0.32418,-0.31735 -0.78072,-0.82138 -1.24531,-0.76496 -1.02072,0.12395 -2.94415,2.49409 -3.58028,3.39968 m -44.519954,4.1226 c 0.06,3.24545 2.25058,6.95201 4.02697,9.32055 0.3786,0.50479 1.69252,2.47993 2.41472,1.94732 0.46862,-0.3456 0.0264,-1.97501 -0.047,-2.48492 -0.27036,-1.87953 -0.68325,-3.74965 -1.20591,-5.55656 -0.17194,-0.59442 -0.30484,-1.57885 -0.77556,-1.9667 -0.44393,-0.36577 -1.24681,-0.16682 -1.76696,-0.26305 -0.91938,-0.17012 -1.78289,-0.61312 -2.64629,-0.99664 m 46.076604,11.47161 c 1.18,-0.15134 2.01794,-1.33826 2.75522,-2.33017 1.82472,-2.45489 3.36813,-5.78961 3.93834,-8.96219 -1.01562,0.11721 -1.93749,0.69126 -2.95763,0.84435 -0.49946,0.0749 -1.20521,-0.0945 -1.603,0.33927 -0.4854,0.52929 -0.63515,1.69453 -0.85375,2.40125 -0.74953,2.42327 -1.27892,5.13258 -1.27918,7.70749 z"
     id="path1" /></svg>
