<?xml version="1.0" encoding="UTF-8" standalone="no"?>
<!-- Created with Inkscape (http://www.inkscape.org/) -->

<svg
   version="1.1"
   id="svg1"
   width="1024"
   height="1024"
   viewBox="0 0 1024 1024"
   sodipodi:docname="AcaClaw (copy).svg"
   inkscape:version="1.3.2 (1:1.3.2+202311252150+091e20ef0f)"
   xmlns:inkscape="http://www.inkscape.org/namespaces/inkscape"
   xmlns:sodipodi="http://sodipodi.sourceforge.net/DTD/sodipodi-0.dtd"
   xmlns="http://www.w3.org/2000/svg"
   xmlns:svg="http://www.w3.org/2000/svg">
  <defs
     id="defs1">
    <linearGradient
       id="swatch1"
       inkscape:swatch="solid">
      <stop
         style="stop-color:#0000ff;stop-opacity:1;"
         offset="0"
         id="stop1" />
    </linearGradient>
  </defs>
  <sodipodi:namedview
     id="namedview1"
     pagecolor="#ffffff"
     bordercolor="#cccccc"
     borderopacity="1"
     inkscape:showpageshadow="0"
     inkscape:pageopacity="1"
     inkscape:pagecheckerboard="0"
     inkscape:deskcolor="#d1d1d1"
     inkscape:zoom="0.57421875"
     inkscape:cx="501.55102"
     inkscape:cy="512"
     inkscape:window-width="2560"
     inkscape:window-height="1376"
     inkscape:window-x="0"
     inkscape:window-y="27"
     inkscape:window-maximized="1"
     inkscape:current-layer="g1" />
  <g
     inkscape:groupmode="layer"
     inkscape:label="Image"
     id="g1">
    <path
       style="fill:#05612f;fill-opacity:1"
       d="M 131.52209,971.2334 C 120.72606,969.8953 103.84756,963.9887 93.803399,958.034 83.844098,952.1295 70.791526,940.2428 63.685992,930.6066 53.907525,917.3455 47.364136,900.6421 45.481652,884.1362 44.75999,877.8085 44.523342,756.79454 44.726394,497.92116 l 0.295707,-377 2.241343,-8 c 11.378229,-40.612171 41.41461,-67.964456 80.622246,-73.417736 5.18804,-0.72159 43.74832,-1.08225 115.70876,-1.08225 95.26901,0 107.92764,0.17593 107.92764,1.5 0,1.20833 1.55556,1.5 8,1.5 6.44445,0 8,-0.29167 8,-1.5 0,-1.32584 15.49074,-1.5 133.41667,-1.5 102.17746,0 133.50945,0.27834 133.81291,1.18873 0.26617,0.7985 4.39703,1.33139 12.58333,1.62326 10.75603,0.38349 12.18709,0.2439 12.18709,-1.18874 0,-2.11571 5.27629,-2.20411 7.35714,-0.12325 1.93284,1.93283 4.64286,1.93283 4.64286,0 0,-2.19408 15.51968,-2.19408 16.36163,0 0.85978,2.24054 31.63837,2.24054 31.63837,0 0,-1.32142 9.99196,-1.5 83.92764,-1.5 54.74441,0 86.63328,0.37632 91.70876,1.08225 29.84924,4.15165 55.97172,22.133345 71.14815,48.975611 4.26271,7.53938 9.83662,24.692995 11.19164,34.442125 0.80414,5.78566 1.03052,112.76587 0.81786,386.5 l -0.29405,378.50004 -2.63984,9.5 c -1.45192,5.225 -3.82282,12.1624 -5.26867,15.4166 -8.74715,19.687 -29.65631,40.8651 -48.95428,49.5838 -9.64503,4.3576 -21.34754,7.7009 -31.13721,8.8956 -11.47219,1.4 -747.18457,1.3188 -758.5,-0.084 z m 299,-86.2069 c 0,-13.5465 0.34459,-17.4988 1.9835,-22.75 2.39368,-7.6696 7.8026,-15.0124 14.38525,-19.5284 9.28367,-6.36894 9.73317,-6.41005 66.72837,-6.10346 l 51.40288,0.27652 5.67515,2.66044 c 7.93921,3.7217 14.22148,9.8698 18.07492,17.6889 3.23419,6.5625 3.25235,6.6842 3.74993,25.1225 l 0.5,18.5282 25.59908,0.2665 25.59908,0.2666 0.65092,-9.1702 c 0.9519,-13.4104 0.78074,-34.0867 -0.36493,-44.0855 -3.90081,-34.04433 -28.22467,-61.90228 -59.60025,-68.25979 -6.93011,-1.40422 -16.69749,-1.57097 -76.91107,-1.31307 l -68.97283,0.29542 -8,2.81536 c -9.84039,3.46303 -15.07912,6.41917 -23.58658,13.30955 -11.96045,9.68702 -20.6901,22.97187 -25.54535,38.87509 -2.67729,8.76934 -2.75768,9.74944 -3.13711,38.25004 l -0.38941,29.25 h 26.07922 26.07923 z m 149,1.0204 c 0,-16.752 -0.87101,-20.9679 -5.61775,-27.1912 -1.48237,-1.9435 -4.7623,-4.7489 -7.28873,-6.2341 l -4.59352,-2.7004 -47,-0.3244 c -32.35443,-0.2232 -48.61293,0.028 -52.17615,0.8052 -6.93327,1.513 -12.1936,5.5341 -15.82385,12.0963 -2.94679,5.3267 -3.00593,5.7199 -3.33429,22.1729 l -0.33429,16.75 h 68.08429 68.08429 z M 366.08748,843.6712 c 0.87633,-7.10401 4.56874,-19.67898 7.9417,-27.0465 l 2.53493,-5.53701 -3.27101,-5.41629 c -1.79905,-2.97896 -7.48054,-10.66643 -12.62553,-17.08326 -27.24681,-33.98231 -70.10844,-69.08941 -87.54172,-71.70369 -7.64618,-1.14662 -9.27087,-0.25538 -10.54552,5.78486 -1.93939,9.19026 -6.04432,20.96942 -10.59914,30.41442 -5.05325,10.47853 -11.47685,17.75086 -18.63038,21.09193 -2.5692,1.19996 -4.87846,2.53358 -5.13167,2.96362 -0.91723,1.5577 2.44274,11.82462 5.35494,16.36289 3.83858,5.98191 12.8225,14.51203 20.44801,19.41514 19.52382,12.55358 57.67626,27.71169 82,32.57889 8.04401,1.6096 22.24875,3.6799 26.17805,3.8154 3.13739,0.1081 3.18711,0.036 3.88734,-5.6404 z m 309.93461,3.6927 c 15.93368,-2.329 24.72351,-4.4232 39,-9.2919 28.84844,-9.83817 54.20346,-22.9269 66.54203,-34.35024 6.02556,-5.57861 12.07119,-15.8834 13.45012,-22.92578 0.57624,-2.94288 0.30266,-3.29997 -4.69011,-6.12186 -7.08007,-4.00163 -13.88608,-11.48405 -18.15311,-19.95723 -3.77796,-7.50202 -9.61392,-23.60671 -11.59861,-32.00706 -0.83888,-3.5506 -1.8356,-5.40314 -3.1277,-5.81323 -16.46726,-5.22651 -69.81587,37.17207 -101.8841,80.97195 l -9.18638,12.54707 2.54125,5.37177 c 3.93175,8.31103 7.33831,19.61489 8.125,26.96081 0.84571,7.8972 -0.7738,7.5034 18.98161,4.6157 z m -107.70779,-90.20102 0.29222,-7.75828 -56.79222,0.25828 -56.79221,0.25828 -0.30147,6.39467 c -0.16581,3.51707 -0.066,7.00832 0.22181,7.75834 0.43496,1.13347 10.0235,1.32005 56.80148,1.10532 l 56.27818,-0.25833 z m 242.80332,4.13716 c 5.24337,-2.44242 15.16086,-11.41463 20.98826,-18.98777 17.58524,-22.85334 29.30843,-64.66061 22.05178,-78.64111 -1.45278,-2.7989 -2.21337,-3.25 -5.47975,-3.25 -9.39053,0 -22.06393,-5.80358 -34.04271,-15.58929 -8.25476,-6.74349 -22.38768,-22.58281 -26.45843,-29.65301 -1.18507,-2.05827 -2.47015,-3.74577 -2.85574,-3.75 -0.38558,-0.004 -2.30638,2.86289 -4.26845,6.37139 -13.12994,23.47854 -16.27085,61.54696 -7.97187,96.62091 5.21985,22.06063 11.32612,36.54877 18.53478,43.9768 5.97009,6.15177 10.93852,6.89112 19.50213,2.90208 z m -582.87577,0.15047 c 6.70493,-4.08818 12.60845,-14.53647 17.69492,-31.31721 12.25256,-40.42234 11.68667,-81.76487 -1.48308,-108.35023 -2.24587,-4.53365 -4.67614,-8.73494 -5.40061,-9.33619 -1.02788,-0.85307 -2.58047,0.70959 -7.06827,7.11417 -16.35731,23.34362 -40.4989,40.76567 -56.59027,40.83901 -2.54516,0.0116 -5.08389,0.5836 -5.64162,1.2711 -1.94747,2.40056 -3.42182,12.7937 -2.70727,19.08431 1.96364,17.28717 10.56726,41.17753 19.81822,55.03082 14.5191,21.74231 31.0224,31.97829 41.37798,25.66422 z m 366.46614,-27.27699 c 16.41991,-3.98123 27.01722,-10.02727 39.87964,-22.75236 16.06346,-15.89196 23.98169,-31.66916 25.9256,-51.65712 1.28634,-13.22659 1.25923,-44.88678 -0.0474,-55.36912 -2.30443,-18.48702 -10.71142,-36.1635 -23.88431,-50.21898 -8.53224,-9.10391 -15.85182,-14.38139 -27.54816,-19.86248 -11.45591,-5.36842 -19.52868,-7.03524 -37.60168,-7.76381 l -15.59041,-0.62849 16.09041,-34.62823 16.09042,-34.62823 3.78744,-0.53164 c 8.17402,-1.14737 14.70276,-8.92016 14.70882,-17.51156 0.006,-8.73363 -4.83344,-15.10522 -13.15964,-17.32536 -6.15716,-1.64177 -11.60372,-0.0453 -16.28292,4.7727 -6.11615,6.29759 -6.89537,13.38733 -2.34113,21.30051 l 2.04924,3.56063 -7.96715,16.99559 c -4.38193,9.34757 -12.37637,26.33969 -17.76541,37.76026 l -9.79826,20.76467 -29.58147,-0.26467 -29.58148,-0.26467 -8.24661,-17.5 c -4.53563,-9.625 -12.39065,-26.41314 -17.45561,-37.30696 l -9.209,-19.80696 2.17159,-4.46979 c 3.97396,-8.17962 2.19578,-17.00785 -4.44611,-22.07386 -11.88933,-9.06844 -28.3823,-1.13202 -28.3823,13.65757 0,8.65601 5.16049,15.05838 13.9507,17.30796 l 5.42524,1.38842 16.15899,34.40181 16.15898,34.40181 -16.09695,0.67133 c -18.26818,0.76188 -27.63613,2.74696 -39.5082,8.37185 -21.32124,10.10182 -37.47575,28.61998 -45.96846,52.69434 l -3.6203,10.26248 0.0141,34 0.0141,34 2.74821,8.80746 c 3.41244,10.93618 6.58812,17.32622 12.80043,25.75673 13.83359,18.77306 34.79993,31.49771 57.42323,34.85064 3.3,0.48908 38.85,0.79235 79,0.67393 63.39475,-0.18698 73.87972,-0.42861 79.6859,-1.8364 z m -168.1859,-55.33503 c -14.19455,-3.74488 -28.54581,-14.66731 -34.3679,-26.15666 -14.81085,-29.22779 0.64092,-66.52688 31.3679,-75.71913 4.91988,-1.47183 14.2202,-1.63892 88.1747,-1.58418 79.41994,0.0588 82.92655,0.13898 89.07213,2.03715 18.33682,5.66367 31.75498,21.63094 35.31516,42.02416 3.90561,22.37185 -6.20791,43.851 -25.62283,54.41793 -2.63456,1.4339 -8.27063,3.49727 -12.5246,4.58525 -7.39755,1.89197 -11.17986,1.97528 -86.82452,1.91233 -65.76722,-0.0547 -80.01652,-0.31024 -84.59004,-1.51685 z m 37.45663,-32.18853 c 12.83846,-8.96522 12.40506,-29.47361 -0.79532,-37.63478 -11.46942,-7.091 -25.23483,-3.28937 -31.2791,8.63843 -2.20536,4.35206 -2.53186,6.11325 -2.20517,11.89489 0.31362,5.55033 0.9244,7.55127 3.35322,10.98532 3.87158,5.47396 7.22923,7.88153 13.05446,9.36062 6.1503,1.56162 12.68941,0.37451 17.87191,-3.24448 z m 116.32549,2.21815 c 8.3987,-3.50834 13.62751,-11.54558 13.62751,-20.94695 0,-19.95802 -22.85359,-29.88815 -37.28174,-16.19932 -11.38817,10.80462 -8.48824,29.16897 5.79877,36.72186 4.42876,2.34129 12.79079,2.54004 17.85546,0.42441 z m -230.08674,23.76248 c 0.86998,-0.55308 0.93539,-1.84193 0.24029,-4.73469 -0.52816,-2.19802 -0.88231,-19.17287 -0.79229,-37.97474 l 0.16279,-34 -3.62605,-0.30876 c -2.09175,-0.17811 -5.55409,0.54411 -8.18266,1.70685 -3.58584,1.58619 -4.97172,2.93024 -6.50507,6.30876 -1.76365,3.88594 -1.94642,6.61696 -1.92688,28.79315 0.0247,28.06246 0.53456,32.0616 4.60642,36.13346 3.46806,3.46806 13.11834,5.92285 16.02345,4.07597 z m 336.64979,-2.09412 c 1.56485,-0.88842 3.70235,-3.28489 4.75,-5.32548 1.73607,-3.38144 1.90469,-6.12801 1.90328,-31 -10e-4,-24.00502 -0.21201,-27.70256 -1.75,-30.71875 -2.47514,-4.85405 -6.03214,-7.09016 -12.30728,-7.73701 l -5.44117,-0.56088 -0.082,34.8634 c -0.0451,19.17487 -0.39632,36.51527 -0.78045,38.53422 -0.57766,3.03607 -0.39056,3.74819 1.08203,4.11835 2.87164,0.72181 9.5509,-0.4282 12.62563,-2.17385 z M 186.3884,643.36008 c 2.40147,-1.06115 7.18398,-3.94001 10.62781,-6.39747 29.14468,-20.79721 64.51007,-89.92353 62.25848,-121.69241 -1.34876,-19.03024 -18.19219,-36.11286 -42.46111,-43.06408 -10.81033,-3.09634 -26.37404,-3.06783 -34.39677,0.063 -12.60518,4.91911 -18.45598,10.9608 -23.90972,24.6898 -13.57222,34.16608 -16.06525,79.29462 -6.47004,117.12005 4.04167,15.93273 9.97025,26.9165 16.42038,30.42173 4.25831,2.31411 11.09713,1.87908 17.93097,-1.14063 z m 667.74978,1.14796 c 7.54593,-3.42675 12.40768,-12.37602 17.34267,-31.92354 4.43459,-17.56542 6.41293,-35.78351 5.71882,-52.66334 -1.25364,-30.48684 -9.87166,-63.97537 -19.64562,-76.34036 -4.50573,-5.70018 -12.97729,-10.47007 -22.63499,-12.74458 -23.80799,-5.60708 -55.55195,8.62925 -66.6639,29.897 -3.14534,6.02003 -3.23263,6.52712 -3.21709,18.68794 0.0142,11.08185 0.3847,13.78637 3.26599,23.83854 13.15458,45.89344 48.31884,94.40562 74.07288,102.19003 4.28192,1.29425 7.38459,1.04583 11.76124,-0.94169 z M 283.3893,496.07493 c 9.06355,-4.49946 17.62535,-11.68733 27.27206,-22.89566 l 5.86073,-6.80947 v -6.56724 c 0,-13.06281 -6.93886,-39.57918 -13.83812,-52.8814 -4.77055,-9.19794 -15.38982,-19.87821 -24.38012,-24.52018 l -6.71825,-3.46883 -3.41656,1.83993 c -11.48201,6.18347 -27.65952,22.75959 -37.98144,38.9173 -3.23624,5.06592 -5.78053,7.97352 -7.31402,8.35841 -6.07747,1.52534 -10.77226,-3.02422 -8.72305,-8.45321 2.1017,-5.56803 16.21736,-24.02733 25.36743,-33.17342 5.22727,-5.225 12.55286,-11.47268 16.27908,-13.88372 4.82403,-3.12137 6.62942,-4.84914 6.26959,-6 -1.567,-5.01167 -8.80425,-38.52198 -10.71567,-49.61628 -1.90085,-11.03298 -2.24649,-16.78275 -2.28431,-38 -0.0491,-27.57609 1.18352,-36.67725 7.57613,-55.93666 9.04138,-27.23957 27.92559,-53.48842 52.20424,-72.56334 l 9.54603,-7.5 -3.18548,-0.86196 c -5.09202,-1.37785 -30.16598,0.0106 -40.18548,2.22531 -29.58708,6.53979 -60.15808,22.1987 -82.54788,42.28221 -36.90069,33.09968 -64.97734,90.54789 -70.8976,145.06502 -1.35281,12.45739 -1.35443,36.92456 -0.003,47.81565 3.75591,30.27269 15.57837,64.01827 30.56447,87.24206 l 4.36752,6.7683 5.7413,-4.67635 c 16.48372,-13.42618 41.70664,-16.12084 66.44619,-7.0987 15.71233,5.73004 30.8627,18.64925 38.15626,32.53707 4.42609,8.42781 3.50788,8.32482 16.54013,1.85516 z m 473.3587,-1.90806 c 11.18289,-21.74722 34.90918,-35.7608 63.36603,-37.42619 16.10903,-0.94276 29.34291,2.86316 41.27454,11.87011 l 5.36648,4.05104 2.33097,-2.87034 c 9.2956,-11.44656 23.35264,-44.08889 28.51568,-66.21724 5.08727,-21.80357 6.71219,-51.93936 3.97137,-73.65309 -9.0105,-71.38433 -46.77459,-133.38041 -100.50692,-164.99891 -15.83019,-9.3152 -34.75395,-16.84291 -51.81953,-20.61336 -10.27109,-2.26929 -38.58617,-3.70639 -42.60388,-2.16232 -2.25955,0.86839 -2.03298,1.15897 4.5,5.77141 9.13255,6.44778 28.46833,26.04471 35.57834,36.05885 16.4032,23.10319 24.99559,47.92359 27.85702,80.46917 1.59411,18.13128 -0.25608,40.48994 -5.66244,68.42795 -2.34166,12.10079 -6.64298,30.42762 -7.92626,33.77179 -0.36961,0.96319 1.36261,2.62855 5.24029,5.03803 12.41683,7.71546 25.04866,20.69983 37.12268,38.15875 3.69922,5.34904 6.16972,9.96492 6.16972,11.52749 0,4.12156 -2.62807,7.05347 -6.3067,7.03583 -4.22913,-0.0203 -4.60019,-0.34001 -9.84672,-8.48468 -10.28153,-15.96097 -21.40171,-27.86347 -33.6271,-35.99281 -5.37359,-3.57319 -7.72975,-4.59594 -9.54079,-4.1414 -4.25788,1.06866 -14.31066,8.48592 -20.57005,15.17723 -10.26151,10.96958 -18.31699,30.48399 -21.65407,52.45698 -2.7845,18.33455 -2.48011,19.16957 12.41864,34.06833 8.50174,8.50174 10.88849,10.25524 20.12908,14.78854 5.76602,2.82872 10.93683,5.1412 11.49069,5.13884 0.55386,-0.002 2.68368,-3.26486 4.73293,-7.25 z m -61.85098,-52.30413 c 3.26024,-18.94578 12.9743,-42.27837 22.47488,-53.98327 l 4.90388,-6.04168 -11.12685,-5.02358 c -18.20036,-8.21715 -30.54619,-16.44344 -42.61163,-28.39305 -8.15279,-8.07452 -11.74678,-12.53106 -15.5585,-19.29251 -2.72619,-4.83588 -5.40671,-9.42635 -5.95671,-10.20104 -0.99913,-1.40732 -2.73623,-0.44601 -19.58445,10.83812 l -3.58446,2.4007 0.8791,7.37736 c 4.34855,36.49283 28.16902,78.49184 59.21623,104.40697 4.90953,4.09799 9.03066,7.34278 9.15807,7.21064 0.1274,-0.13213 0.9331,-4.31653 1.79044,-9.29866 z m -355.10586,1.63473 c 14.68294,-12.1009 31.28868,-32.72299 42.03332,-52.19972 7.78385,-14.10972 15.70734,-38.65428 17.28358,-53.53923 l 0.6526,-6.16264 -3.36929,-1.70452 c -1.8531,-0.93749 -7.10966,-4.17393 -11.68123,-7.19208 -4.57157,-3.01816 -8.39657,-5.32793 -8.5,-5.13284 -0.10343,0.19509 -1.86555,3.72972 -3.91582,7.85472 -7.46532,15.01965 -19.0843,26.998 -38.55068,39.74304 -8.19593,5.36604 -24.53509,13.54459 -29.59818,14.81535 -1.44285,0.36213 -2.62337,0.80729 -2.62337,0.98925 0,0.18196 2.54202,3.84567 5.64893,8.14159 9.98079,13.80043 17.69941,33.31397 21.38384,54.06077 0.70815,3.9875 1.63578,7.25 2.0614,7.25 0.42562,0 4.55433,-3.11566 9.1749,-6.92369 z M 530.91969,338.40158 c 27.80882,-2.00501 49.64374,-6.24077 71.95486,-13.95853 19.48369,-6.73971 33.82105,-15.14106 40.27789,-23.60189 l 2.86965,-3.7603 0.29404,-28.99389 c 0.16172,-15.94665 0.0778,-29.55732 -0.18642,-30.24595 -0.50112,-1.30591 -1.30273,-1.04944 -30.10762,9.63247 -32.59087,12.0859 -102.76304,36.94817 -104.29673,36.95274 -0.9368,0.003 -11.60327,-3.57605 -23.70327,-7.95296 -12.1,-4.37691 -37.525,-13.55717 -56.5,-20.40057 -18.975,-6.8434 -38.83837,-14.0387 -44.14081,-15.98956 -5.30245,-1.95086 -9.86025,-3.32759 -10.12844,-3.0594 -0.56622,0.56622 0.17863,56.89211 0.79267,59.94214 0.2264,1.1246 3.0105,4.62296 6.18687,7.77414 22.14313,21.96749 90.69482,37.69861 146.68731,33.66156 z m -204.7774,-16.4662 c 2.07355,-0.86639 3.36139,-2.0128 3.08923,-2.75 -0.25669,-0.69532 -2.19418,-9.92672 -4.30552,-20.51422 l -3.8388,-19.25 h -4.16011 c -2.28806,0 -4.59646,0.5625 -5.12979,1.25 -0.86721,1.11791 -8.27737,36.46052 -8.27583,39.4714 0.002,3.06218 16.46076,4.36666 22.62082,1.79282 z m -3.98724,-50.28646 c 1.17313,-0.95027 2.63563,-2.71068 3.25,-3.91202 2.46181,-4.81382 0.37179,-13.03867 -3.89331,-15.32128 -1.89349,-1.01337 -1.98965,-2.12638 -1.98965,-23.02965 0,-19.2108 0.19514,-21.96481 1.55631,-21.96481 0.85597,0 23.91847,-2.67349 51.25,-5.94109 27.33153,-3.2676 64.43119,-7.63301 82.44369,-9.70091 l 32.75,-3.75982 v -2.63243 c 0,-1.44783 -0.21296,-2.84538 -0.47325,-3.10567 -0.26029,-0.26029 -11.17279,0.7584 -24.25,2.26376 -13.07721,1.50536 -51.67675,5.94013 -85.77675,9.85504 -50.64405,5.81429 -62.22895,7.4189 -63.25,8.7607 -0.91706,1.20515 -1.25,7.83587 -1.25,24.89484 0,21.24158 -0.15566,23.36516 -1.80024,24.55887 -6.0146,4.36569 -6.91487,11.78371 -2.09617,17.27191 2.62592,2.99075 3.74178,3.53137 7.25,3.51256 2.40973,-0.0129 5.03978,-0.74589 6.27937,-1.75 z m 217.41176,-10.77339 c 14.55041,-5.2501 39.95528,-14.4446 56.45528,-20.43222 29.46701,-10.69318 45.12662,-16.32967 89,-32.0345 27.29832,-9.77166 48.55668,-17.711 49.23251,-18.38683 0.50083,-0.50083 -6.20739,-8.08362 -14.26985,-16.13024 -4.70001,-4.69078 -1.30528,-3.49204 -56.96266,-20.11449 -23.1,-6.89898 -66.62435,-19.91069 -96.72078,-28.91491 l -54.72079,-16.37133 -61.77921,18.53215 c -33.97857,10.19268 -79.67451,23.89669 -101.54654,30.45336 -21.87202,6.55667 -40.87382,12.64623 -42.22622,13.53236 -2.93108,1.92052 -16.98561,18.26646 -16.29748,18.95458 0.26348,0.26349 4.48626,1.83358 9.38396,3.48911 l 8.9049,3.01005 33.50108,-4.00534 c 18.4256,-2.20293 59.15108,-6.97525 90.50108,-10.60515 54.61152,-6.32326 57.29332,-6.73005 64,-9.70775 12.47781,-5.54002 27.07603,-4.54642 34.96456,2.3798 7.92806,6.96093 4.3566,16.90271 -7.68305,21.38713 -5.96727,2.22263 -20.44904,1.76372 -25.82262,-0.81829 -3.41684,-1.64179 -4.7329,-1.55972 -37.5,2.3385 -18.67739,2.22201 -49.03389,5.83312 -67.45889,8.02471 -18.425,2.19159 -35.87515,4.2687 -38.77812,4.6158 -6.22075,0.74381 -7.4852,1.91274 -3.10879,2.87397 1.72181,0.37817 15.56323,5.18401 30.75873,10.67964 15.1955,5.49564 31.90318,11.47911 37.12818,13.2966 9.40664,3.27207 53.42028,19.24485 78.5,28.48808 7.15,2.63516 13.69513,4.84062 14.54472,4.90102 0.8496,0.0604 13.4496,-4.18572 28,-9.43581 z"
       id="path1" />
  </g>
</svg>
